{
    "asset" : {
        "generator" : "Khronos glTF Blender I/O v1.6.16",
        "version" : "2.0"
    },
    "scene" : 0,
    "scenes" : [
        {
            "name" : "Scene",
            "nodes" : [
                0,
                1,
                2,
                3,
                4
            ]
        }
    ],
    "nodes" : [
        {
            "mesh" : 0,
            "name" : "Plane",
            "rotation" : [
                0,
                0,
                0.7071093916893005,
                -0.7071041464805603
            ],
            "scale" : [
                1.7760000228881836,
                1.4700000286102295,
                1
            ],
            "translation" : [
                -0.16171836853027344,
                0.17323875427246094,
                -0.14525413513183594
            ]
        },
        {
            "mesh" : 1,
            "name" : "Plane.001",
            "rotation" : [
                0,
                0,
                0.7071093916893005,
                -0.7071041464805603
            ],
            "scale" : [
                1.7760000228881836,
                1.4700000286102295,
                1
            ],
            "translation" : [
                -0.16171836853027344,
                0.17323875427246094,
                -0.14525413513183594
            ]
        },
        {
            "mesh" : 2,
            "name" : "Cube",
            "scale" : [
                0.05874316766858101,
                0.15663190186023712,
                0.03511343523859978
            ],
            "translation" : [
                -0.05137573927640915,
                1.1806905269622803,
                -1.1328903436660767
            ]
        },
        {
            "mesh" : 3,
            "name" : "Cube.001",
            "scale" : [
                0.05874316766858101,
                0.12351128458976746,
                0.03511343523859978
            ],
            "translation" : [
                -0.02106054127216339,
                1.2067283391952515,
                0.8390412330627441
            ]
        },
        {
            "mesh" : 4,
            "name" : "Cube.002",
            "scale" : [
                0.05874316766858101,
                0.12351128458976746,
                0.03511343523859978
            ],
            "translation" : [
                -0.02106054127216339,
                0.9286347031593323,
                0.8390412330627441
            ]
        }
    ],
    "materials" : [
        {
            "doubleSided" : true,
            "name" : "Material.002",
            "pbrMetallicRoughness" : {
                "baseColorFactor" : [
                    0.002682976657524705,
                    0.002682976657524705,
                    0.002682976657524705,
                    1
                ],
                "metallicFactor" : 0,
                "roughnessFactor" : 0.5
            }
        },
        {
            "doubleSided" : true,
            "name" : "Material.001",
            "pbrMetallicRoughness" : {
                "baseColorTexture" : {
                    "index" : 0
                },
                "metallicFactor" : 0,
                "roughnessFactor" : 0.5
            }
        },
        {
            "doubleSided" : true,
            "name" : "Material.003",
            "pbrMetallicRoughness" : {
                "baseColorFactor" : [
                    0.011532388627529144,
                    0.011532388627529144,
                    0.011532388627529144,
                    1
                ],
                "metallicFactor" : 0,
                "roughnessFactor" : 0.5
            }
        },
        {
            "doubleSided" : true,
            "name" : "Material.004",
            "pbrMetallicRoughness" : {
                "baseColorFactor" : [
                    0.006857720203697681,
                    0.006857720203697681,
                    0.006857720203697681,
                    1
                ],
                "metallicFactor" : 0,
                "roughnessFactor" : 0.5
            }
        },
        {
            "doubleSided" : true,
            "name" : "Material.005",
            "pbrMetallicRoughness" : {
                "baseColorFactor" : [
                    0.010230586864054203,
                    0.010230586864054203,
                    0.010230586864054203,
                    1
                ],
                "metallicFactor" : 0,
                "roughnessFactor" : 0.5
            }
        }
    ],
    "meshes" : [
        {
            "name" : "Plane",
            "primitives" : [
                {
                    "attributes" : {
                        "POSITION" : 0,
                        "NORMAL" : 1,
                        "TEXCOORD_0" : 2
                    },
                    "indices" : 3,
                    "material" : 0
                }
            ]
        },
        {
            "name" : "Plane.001",
            "primitives" : [
                {
                    "attributes" : {
                        "POSITION" : 4,
                        "NORMAL" : 5,
                        "TEXCOORD_0" : 6
                    },
                    "indices" : 7,
                    "material" : 1
                }
            ]
        },
        {
            "name" : "Cube.001",
            "primitives" : [
                {
                    "attributes" : {
                        "POSITION" : 8,
                        "NORMAL" : 9,
                        "TEXCOORD_0" : 10
                    },
                    "indices" : 11,
                    "material" : 2
                }
            ]
        },
        {
            "name" : "Cube.002",
            "primitives" : [
                {
                    "attributes" : {
                        "POSITION" : 12,
                        "NORMAL" : 13,
                        "TEXCOORD_0" : 14
                    },
                    "indices" : 11,
                    "material" : 3
                }
            ]
        },
        {
            "name" : "Cube.003",
            "primitives" : [
                {
                    "attributes" : {
                        "POSITION" : 15,
                        "NORMAL" : 16,
                        "TEXCOORD_0" : 17
                    },
                    "indices" : 11,
                    "material" : 4
                }
            ]
        }
    ],
    "textures" : [
        {
            "sampler" : 0,
            "source" : 0
        }
    ],
    "images" : [
        {
            "mimeType" : "image/jpeg",
            "name" : "fairrepack",
            "uri" : "fairrepack.jpg"
        }
    ],
    "accessors" : [
        {
            "bufferView" : 0,
            "componentType" : 5126,
            "count" : 284,
            "max" : [
                1,
                0.16571219265460968,
                1
            ],
            "min" : [
                -1,
                0,
                -1
            ],
            "type" : "VEC3"
        },
        {
            "bufferView" : 1,
            "componentType" : 5126,
            "count" : 284,
            "type" : "VEC3"
        },
        {
            "bufferView" : 2,
            "componentType" : 5126,
            "count" : 284,
            "type" : "VEC2"
        },
        {
            "bufferView" : 3,
            "componentType" : 5123,
            "count" : 432,
            "type" : "SCALAR"
        },
        {
            "bufferView" : 4,
            "componentType" : 5126,
            "count" : 36,
            "max" : [
                0.917198121547699,
                0.16571219265460968,
                0.917198121547699
            ],
            "min" : [
                -0.917198121547699,
                0.16571219265460968,
                -0.917198121547699
            ],
            "type" : "VEC3"
        },
        {
            "bufferView" : 5,
            "componentType" : 5126,
            "count" : 36,
            "type" : "VEC3"
        },
        {
            "bufferView" : 6,
            "componentType" : 5126,
            "count" : 36,
            "type" : "VEC2"
        },
        {
            "bufferView" : 7,
            "componentType" : 5123,
            "count" : 102,
            "type" : "SCALAR"
        },
        {
            "bufferView" : 8,
            "componentType" : 5126,
            "count" : 24,
            "max" : [
                1,
                1,
                1
            ],
            "min" : [
                -1,
                -1,
                -1
            ],
            "type" : "VEC3"
        },
        {
            "bufferView" : 9,
            "componentType" : 5126,
            "count" : 24,
            "type" : "VEC3"
        },
        {
            "bufferView" : 10,
            "componentType" : 5126,
            "count" : 24,
            "type" : "VEC2"
        },
        {
            "bufferView" : 11,
            "componentType" : 5123,
            "count" : 36,
            "type" : "SCALAR"
        },
        {
            "bufferView" : 12,
            "componentType" : 5126,
            "count" : 24,
            "max" : [
                1,
                1,
                1
            ],
            "min" : [
                -1,
                -1,
                -1
            ],
            "type" : "VEC3"
        },
        {
            "bufferView" : 13,
            "componentType" : 5126,
            "count" : 24,
            "type" : "VEC3"
        },
        {
            "bufferView" : 14,
            "componentType" : 5126,
            "count" : 24,
            "type" : "VEC2"
        },
        {
            "bufferView" : 15,
            "componentType" : 5126,
            "count" : 24,
            "max" : [
                1,
                1,
                1
            ],
            "min" : [
                -1,
                -1,
                -1
            ],
            "type" : "VEC3"
        },
        {
            "bufferView" : 16,
            "componentType" : 5126,
            "count" : 24,
            "type" : "VEC3"
        },
        {
            "bufferView" : 17,
            "componentType" : 5126,
            "count" : 24,
            "type" : "VEC2"
        }
    ],
    "bufferViews" : [
        {
            "buffer" : 0,
            "byteLength" : 3408,
            "byteOffset" : 0
        },
        {
            "buffer" : 0,
            "byteLength" : 3408,
            "byteOffset" : 3408
        },
        {
            "buffer" : 0,
            "byteLength" : 2272,
            "byteOffset" : 6816
        },
        {
            "buffer" : 0,
            "byteLength" : 864,
            "byteOffset" : 9088
        },
        {
            "buffer" : 0,
            "byteLength" : 432,
            "byteOffset" : 9952
        },
        {
            "buffer" : 0,
            "byteLength" : 432,
            "byteOffset" : 10384
        },
        {
            "buffer" : 0,
            "byteLength" : 288,
            "byteOffset" : 10816
        },
        {
            "buffer" : 0,
            "byteLength" : 204,
            "byteOffset" : 11104
        },
        {
            "buffer" : 0,
            "byteLength" : 288,
            "byteOffset" : 11308
        },
        {
            "buffer" : 0,
            "byteLength" : 288,
            "byteOffset" : 11596
        },
        {
            "buffer" : 0,
            "byteLength" : 192,
            "byteOffset" : 11884
        },
        {
            "buffer" : 0,
            "byteLength" : 72,
            "byteOffset" : 12076
        },
        {
            "buffer" : 0,
            "byteLength" : 288,
            "byteOffset" : 12148
        },
        {
            "buffer" : 0,
            "byteLength" : 288,
            "byteOffset" : 12436
        },
        {
            "buffer" : 0,
            "byteLength" : 192,
            "byteOffset" : 12724
        },
        {
            "buffer" : 0,
            "byteLength" : 288,
            "byteOffset" : 12916
        },
        {
            "buffer" : 0,
            "byteLength" : 288,
            "byteOffset" : 13204
        },
        {
            "buffer" : 0,
            "byteLength" : 192,
            "byteOffset" : 13492
        }
    ],
    "samplers" : [
        {
            "magFilter" : 9729,
            "minFilter" : 9987
        }
    ],
    "buffers" : [
        {
            "byteLength" : 13684,
            "uri" : "untitled.bin"
        }
    ]
}
